<?xml version="1.0" encoding="UTF-8"?>
<svg width="50px" height="50px" viewBox="0 0 50 50" version="1.1" xmlns="http://www.w3.org/2000/svg" xmlns:xlink="http://www.w3.org/1999/xlink">
    <!-- Generator: Sketch 46.2 (44496) - http://www.bohemiancoding.com/sketch -->
    <title>Untitled 2</title>
    <desc>Created with Sketch.</desc>
    <defs></defs>
    <g id="Page-1" stroke="none" stroke-width="1" fill="none" fill-rule="evenodd">
        <path d="M37.1950704,24.6112676 C37.1950704,25.1943662 36.721831,25.6676056 36.1387324,25.6676056 L16.4119718,25.6676056 L23.4366197,32.6922535 C23.8492958,33.1049296 23.8492958,33.7732394 23.4366197,34.1859155 C23.2302817,34.3922535 22.9598592,34.4950704 22.6894366,34.4950704 C22.4197183,34.4950704 22.1492958,34.3922535 21.9429577,34.1859155 L13.1211268,25.3640845 C12.9725352,25.2190141 12.8676056,25.0302817 12.8253521,24.8183099 C12.8161972,24.7732394 12.8147887,24.728169 12.8119718,24.6830986 C12.8098592,24.6584507 12.8042254,24.6359155 12.8042254,24.6112676 L12.8042254,24.6105634 L12.8042254,24.6098592 C12.8042254,24.5387324 12.8119718,24.4683099 12.8260563,24.4 C12.8288732,24.3830986 12.8366197,24.3669014 12.8408451,24.3507042 C12.8542254,24.3 12.8669014,24.2492958 12.8866197,24.2014085 C12.8915493,24.1894366 12.8992958,24.1802817 12.9049296,24.1690141 C12.956338,24.0570423 13.0253521,23.9514085 13.1140845,23.8633803 L21.9429577,15.0366197 C22.3556338,14.6239437 23.0239437,14.6239437 23.4366197,15.0366197 C23.8492958,15.4492958 23.8492958,16.1183099 23.4366197,16.5302817 L16.4098592,23.5549296 L36.1387324,23.5549296 C36.721831,23.5549296 37.1950704,24.028169 37.1950704,24.6112676 M25,47.8873239 C12.3795775,47.8873239 2.11267606,37.6204225 2.11267606,25 C2.11267606,12.3795775 12.3795775,2.11267606 25,2.11267606 C37.6204225,2.11267606 47.8873239,12.3795775 47.8873239,25 C47.8873239,37.6204225 37.6204225,47.8873239 25,47.8873239 M25,0 C11.2140845,0 0,11.2147887 0,25 C0,38.7852113 11.2140845,50 25,50 C38.7852113,50 50,38.7852113 50,25 C50,11.2147887 38.7852113,0 25,0" id="Fill-1" fill="#FFFFFF" transform="translate(25.000000, 25.000000) scale(-1, 1) translate(-25.000000, -25.000000) "></path>
    </g>
</svg>